<svg width="24" height="26" viewBox="0 0 24 26" fill="none" xmlns="http://www.w3.org/2000/svg">
<rect x="3.78946" y="0.0259399" width="2.52632" height="18.9474" rx="1.26316" fill="#5685FF"/>
<rect x="3.78946" y="25.2891" width="2.52632" height="20.2105" rx="1.26316" transform="rotate(-90 3.78946 25.2891)" fill="#5685FF"/>
<rect x="3.57922" y="1.20932" width="2.52632" height="20.1726" rx="1" transform="rotate(-26 3.57922 1.20932)" fill="#5685FF"/>
<rect x="16.4211" y="0.637115" width="2.52632" height="19.1041" rx="1" transform="rotate(-14 16.4211 0.637115)" fill="#5685FF"/>
<rect x="13.8947" y="12.6575" width="2.52632" height="7.57895" rx="1" transform="rotate(-90 13.8947 12.6575)" fill="#5685FF"/>
<rect width="2.52632" height="19.0045" rx="1" transform="matrix(0.961262 0.275637 0.275637 -0.961262 11.5212 18.2683)" fill="#5685FF"/>
<path fill-rule="evenodd" clip-rule="evenodd" d="M4.42105 25.2891C5.09911 25.2891 5.74152 25.1583 6.31579 24.9244L6.31579 22.7628C4.22292 22.7628 2.52632 21.9145 2.52632 20.868C2.52632 19.8216 4.22292 18.9733 6.31579 18.9733L6.31579 18.0748C5.74152 17.841 5.09911 17.7101 4.42105 17.7101C1.97937 17.7101 0 19.4067 0 21.4996C0 23.5925 1.97937 25.2891 4.42105 25.2891Z" fill="#5685FF"/>
</svg>
